<svg xmlns="http://www.w3.org/2000/svg" width="40" height="62" fill="none"><g fill="#149080"><path d="M15.2 37.7c-.3 1-.2 2.2 0 3.6.5 2.6 1.7 6 2.4 9.7h5c.7-3.6 2-7 2.5-9.7.3-1.4.3-2.7 0-3.6-.3-.9-.9-1.6-2-2.3h-6c-1.1.7-1.7 1.4-2 2.3zM27 57.6H13.1c-1.3 0-2.3 1-2.3 2.2V62h18.3v-2.2c0-1.2-1-2.2-2.3-2.2zm7-55.4H22.3C22.3 1 21.3 0 20 0c-1.2 0-2.2 1-2.2 2.2H6L0 27.6c.8-.5 1.6-1 2.6-1 1.4 0 2.2.8 2.9 1.4.7.6 1.2.8 1.4.8.3 0 .8-.3 1.5-.8s1.6-1.4 2.9-1.4c1.3 0 2.2.8 2.9 1.4.7.5 1.2.8 1.5.8l.6-.2.9-.6c.5-.4 1-1 2-1.2l.8-.1c1.3 0 2.2.8 3 1.4.6.5 1.1.8 1.4.8.3 0 .8-.3 1.4-.8.7-.6 1.6-1.4 3-1.4 1.3 0 2.1.8 2.8 1.4.3.3.6.5 1 .6l.5.2c.3 0 .8-.3 1.4-1 .7-.5 1.6-1.3 3-1.3.9 0 1.7.5 2.5 1L34 2.2zM23.4 53.1h-6.8c-.7 0-1.1.5-1.1 1.1 0 .6.5 1.1 1 1.1h7c.6 0 1-.5 1-1 .1-.7-.4-1.2-1-1.2z"/><path d="M20 28.8l-.5.2c-.2 0-.4.3-.6.4V33H21v-3.5l-1-.7z"/></g></svg>