<svg xmlns="http://www.w3.org/2000/svg">
  /*--- About Icons ---*/
  <symbol id="eco-material" fill="none" viewBox="0 0 33 38">
    <path fill="currentColor" d="M16.5 38c9 0 16.5-7.4 16.5-16.3-9 0-16.5 7.2-16.5 16.3ZM4.7 16.7c0 2.5 2.1 4.4 4.6 4.4 1 0 1.8-.3 2.6-.8v.3c0 2.6 2 4.5 4.5 4.5 2.6 0 4.5-2 4.5-4.5v-.3c.8.5 1.7.8 2.6.8 2.6 0 4.6-2 4.6-4.4 0-1.9-1-3.4-2.6-4.1A4.4 4.4 0 0 0 28 8.5C28 5.9 26 4 23.5 4c-1 0-1.8.3-2.6.8v-.3C21 1.9 19 0 16.4 0c-2.6 0-4.5 2-4.5 4.5v.3C11 4.3 10.2 4 9.3 4 6.7 4 4.7 6 4.7 8.5c0 1.8 1 3.3 2.6 4a4.6 4.6 0 0 0-2.6 4.2ZM16.5 8a4.5 4.5 0 1 1 0 9 4.5 4.5 0 1 1 0-9ZM0 21.7C0 30.7 7.4 38 16.5 38c0-9-7.4-16.3-16.5-16.3Z"/>
  </symbol>
  <symbol id="good-style" fill="none" viewBox="0 0 47 27">
    <path fill="currentColor" d="M43 0H4C1.6 0 0 1.7 0 3.9V23C0 25.3 1.7 27 4 27h39c2.3 0 4-1.7 4-3.9V4A4 4 0 0 0 43 0ZM3 24.7v-22h40.6v22H3Z"/>
    <path fill="currentColor" d="M7 20.9h32.6V6.6H7V21ZM23.5 8.5c3 0 5.3 2.4 5.3 5.2a5.3 5.3 0 0 1-10.7 0c0-3 2.5-5.2 5.4-5.2Z"/>
  </symbol>
  <symbol id="likes-up" fill="none" viewBox="0 0 34 27">
    <path fill="currentColor" d="M34 8.4C34 3.8 30 0 25 0c-3.5 0-6.5 2-8 4.7A9.1 9.1 0 0 0 9 0C4 0 0 3.8 0 8.4 0 17.3 15.1 27 17 27c2 0 17-9.6 17-18.6Z"/>
  </symbol>
  <symbol id="create-width-love" fill="none" viewBox="0 0 35 34">
    <path fill="currentColor" d="M.3 14a16 16 0 0 0 0 6.2L4.5 17 .3 14ZM24.9 1.6A18 18 0 0 0 9.3 2l7.6 5.5 8-6ZM34.5 13l-4.9 3.7 5 3.7c.5-2.4.5-5 0-7.3ZM9.4 32a17.8 17.8 0 0 0 16 .2l-8.3-6L9.4 32ZM8 14.2 1.7 9.7l-.8 2 5.4 4L8 14.2ZM19 24.8l8.4 6.2.8-.6 1-.8-8.5-6.2-1.8 1.4ZM11.6 11.6 4.1 6c-.5.5-1 1.1-1.3 1.7l7 5.2 1.8-1.4ZM22.5 22.2l8.3 6c.5-.5.9-1 1.3-1.7l-7.9-5.7-1.7 1.4ZM15.2 9 7.3 3.1c-.2 0-.4.3-.6.4l-1.1 1 7.8 5.6 1.8-1.3ZM26 19.4l7.2 5.1 1-2-6.3-4.5-1.8 1.4ZM26.9 2.7.9 22.4l.8 2L28.7 4c-.5-.5-1.1-1-1.8-1.3ZM31.3 6.5c-.3-.4-.6-.8-1-1L3 26.1c.2.5.5 1 .8 1.2 0 .2.3.4.4.5L31.8 7.1l-.5-.6ZM32.9 9 5.7 29.4l1.7 1.4 26.5-20-1-2Z"/>
  </symbol>
  <symbol id="our-manufacture" fill="none" viewBox="0 0 55 23">
    <path fill="currentColor" d="M41 5.8a47.8 47.8 0 0 0-20.4-1.1L13.7 0H.2L6 6.1h8.5c-4.7 1.6-7 3.5-7 3.5v3.8s2.4 1.9 7 3.5H6L0 23h13.6l7-4.7a46 46 0 0 0 20.2-1c-1.2-1.8-1.9-3.7-1.9-5.9.1-2 1-3.9 2-5.6ZM44.5 6.7a7.6 7.6 0 0 0-2 4.8c0 1.6.7 3.2 2 4.8C51 14 55 11.5 55 11.5s-4-2.6-10.5-4.8Z"/>
  </symbol>
  <symbol id="gift-package" fill="none" viewBox="0 0 33 32">
    <path fill="currentColor" d="M3 32h12.6V18.3H3V32ZM31.4 8.7H24l1.4-.8c1.6-1 2.5-2.6 2.5-4 0-1.1-.7-2.1-1.5-2.8-.8-.7-1.9-1.1-3-1.1-1.2 0-2.4.4-3.3 1-1.5 1-2.6 2.6-3.4 4.1l-.1.2-1-1.7c-.8-1-1.6-2-2.6-2.5C12 .5 11 0 9.7 0a5 5 0 0 0-3.2 1.3C5.7 2 5 3.2 5 4.3c0 .7.2 1.5.7 2.2.6 1 1.4 1.6 2.6 2.2H1.6c-.9 0-1.6.7-1.6 1.6V16h15.5V8.7h2V16H33v-5.8c0-1-.7-1.6-1.6-1.6ZM8.9 6.4l-1.2-1-.3-1c0-.5.2-1 .7-1.5.4-.4 1-.7 1.6-.7.7 0 1.4.2 2 .7 1 .7 2 1.7 2.6 3.1l.8 2.1A15 15 0 0 1 9 6.4Zm10.6-1.6C20 4 20.7 3.4 21.4 3c.7-.5 1.4-.7 2-.7.6 0 1.1.2 1.5.5.4.3.6.7.6 1.2 0 .4-.3 1.2-1.5 2-1 .8-3.1 1.7-6.1 2.3.3-1.2.9-2.5 1.6-3.5Zm-2 27.2H30V18.3H17.5V32Z"/>
  </symbol>
  /*--- Other ---*/
  <symbol id="cart-icon" fill="none" viewBox="0 0 21 18">
    <path fill="currentColor" d="M20.19 6.86h-3.55L13.19.38c-.2-.38-.61-.48-1.02-.28-.4.19-.5.57-.3.95l3.14 5.8H5.78l3.15-5.8c.2-.38 0-.76-.3-.95A.82.82 0 0 0 7.6.38L4.16 6.86H.8c-.4 0-.81.28-.81.76 0 .38.3.76.81.76h.2l.92 2.86c-.2.1-.3.28-.3.57 0 .38.3.67.7.67L4.06 18h12.88l1.73-5.52c.4 0 .7-.29.7-.67 0-.2-.1-.48-.3-.57L20 8.38h.2c.4 0 .81-.28.81-.76s-.4-.76-.81-.76Zm-4.57 9.62H5.07l-1.21-4.1h13.08l-1.32 4.1Zm1.63-5.53H3.35L2.54 8.3h15.52l-.81 2.66Z"/>
  </symbol>
  <symbol id="play-video" fill="none" viewBox="0 0 101 77">
    <path fill="currentColor" d="M97 18.1s-.9-7-3.8-10.1c-3.6-4-7.7-4.1-9.5-4.3-13.3-1-33.3-1-33.3-1h-.1s-20 0-33.3 1c-1.9.2-5.9.3-9.5 4.3a23.9 23.9 0 0 0-3.8 10.1s-.9 8.2-.9 16.4v7.7c0 8.2.9 16.4.9 16.4s.9 7 3.8 10.1c3.6 4 8.4 3.9 10.5 4.3 7.6.8 32.4 1 32.4 1s20 0 33.3-1c1.9-.2 5.9-.3 9.5-4.3C96 65.6 97 58.6 97 58.6s.9-8.2.9-16.4v-7.7c0-8.2-.9-16.4-.9-16.4Z"/>
    <path fill="#fff" d="M50.3 76.8c-1 0-25-.3-32.6-1h-.2l-1.1-.2a16 16 0 0 1-10.8-5C2.2 67 1.2 59.8 1.1 59c0-.3-1-8.5-1-16.7v-7.7c0-8.3.9-16.4.9-16.7v-.1c.1-.8 1.2-7.9 4.5-11.6 4-4.4 8.5-4.9 10.7-5.1l.5-.1h.1c13.3-1 33.3-1 33.5-1h.1c.2 0 20.2 0 33.5 1h.1l.5.1c2.2.2 6.7.7 10.7 5.1 3.4 3.6 4.4 10.8 4.5 11.6 0 .3 1 8.5 1 16.8v7.7c0 8.3-.9 16.4-1 16.7v.1c-.1.8-1.2 8-4.5 11.6-4 4.4-8.5 4.9-10.7 5.1l-.5.1h-.1c-13.3.9-33.4.9-33.6.9Zm-31.9-6.4c7.5.7 31.2 1 32 1 .7 0 20.1 0 33-1l.6-.1c1.8-.2 4.6-.5 7.2-3.3a20 20 0 0 0 3.1-8.6c.1-.5.9-8.4.9-16.1v-7.7c0-7.8-.9-15.6-1-16.1-.3-2.4-1.4-6.8-3.1-8.5-2.6-2.9-5.4-3.1-7.2-3.3l-.6-.1c-13.1-1-32.8-1-33-1h-.1c-.2 0-20 0-33 1l-.6.1c-1.8.2-4.6.5-7.2 3.3a20 20 0 0 0-3.1 8.6c-.1.6-.9 8.4-.9 16.1v7.7c0 7.7.9 15.6.9 16.1.3 2.4 1.4 6.8 3.1 8.5 2.3 2.6 5.3 3 7.5 3.3.6-.1 1 0 1.5.1Z"/>
    <path fill="#fff" d="M38.4 20.5v35.7l29.8-17.8-29.8-17.9Z"/>
  </symbol>
  <symbol id="footer-logo" fill="none" viewBox="0 0 102 34">
    <path fill="currentColor" d="M19.2 21.4c0-2.7-.5-5.3-.5-8 0-2.2.4-4.4-.4-6.4l.1-.7c.2-1-3.3-.5-3.8.5-.3.3-.5.6-.4 1l.1.3c-.7 3.1-1.6 6.2-2.6 9.3l-1.3 3.5c-.6-1.1-1.2-2.2-1.6-3.4-1.4-3.4-2.6-6.9-4.3-10.1.2-1.5-3.2-1.4-3.9 0a8.3 8.3 0 0 0-.4 5.1c.3 2 .4 4 .4 6.1 0 4 .4 7.9.4 11.8-.4.4-.5 1 0 1.4l.5.5c1 .7 3.6.1 3.6-1.3 0-4-.3-8.1-.4-12.3v-1.2l.2.4c.6 1.6 1.3 3.2 2.2 4.7 1 1.5 1.3 3 1.8 4.6-.2.2-.3.5-.2.7 0 .2.1.3.3.4.6.5 1.8.3 2.5 0 .3 0 .6-.3.8-.4.3-.2 1-.7.7-1.1v-.3l1-4c.2-1.3.7-2.7 1.2-4l.2 1.9c.2 2.6 0 5 0 7.5l.2 2.5c.1.3.4 1.8.3 2-.8.4-.6 1 .2 1.2 1 .2 2.1 0 2.8-.7 1.2-1 .6-2.8.4-4.2-.5-2.3 0-5 0-7.3ZM27.6 22c0-2-.8-3.8-.8-5.8 0-2.3.2-4.6-.2-6.9 0-.6-4 .1-3.9 1 .3 2.1.2 4.2.2 6.4 0 2 .5 3.9.7 5.9.3 2 0 4.2.1 6.1.1 1 .8 2.7.1 3.6-.4.5 1.5.3 1.6.3.8 0 1.8-.4 2.3-1 .7-.8.2-2.4.1-3.4-.3-2 0-4.1-.2-6.1ZM44 18.8c-2.2-2.8-6-.8-8.7-1.5C34 16.9 34 15 34 13.9a28 28 0 0 0-.3-4c0-1.1 0-2.1.7-3l.8-.2 1.1-.1c1.5-.1 4.6.2 4 2.4-.3 1 3.6.4 4-.5 1.1-4.6-7.4-3.7-9.8-3.1-2.2.6-4.6 1.8-4.8 4.3l.3 3.6c.1 1.4-.2 2.8.3 4.1 1.1 3 5.5 1.6 7.8 1.7 3.8.3 2.7 5.5 2.7 7.9 0 1.2 1.2 3.3.2 4.4-.6.7-2 .7-2.8.8-.8.1-2.2.3-2.7-.5-1-1.4.1-3.8 0-5.3-.2-1-4.2-.1-4 1 .3 2.5-1.4 6 2.4 6.5 2.4.3 5.2-.2 7.5-.9 1.2-.4 2.3-.9 3.2-1.8 1-.9.7-2.3.4-3.5-.5-3 1-6.4-1-8.9ZM61.3 18.6c0-3.8-.7-7.5-.7-11.2 0-2-4-1.3-4 .3 0 3.5.5 7.1.7 10.7v.2l-5.9.2c.2-4.6-.6-9.2-.4-13.8 0-.6-3.9-.1-3.9 1-.2 4.4.6 8.8.5 13.3l-.3 6.4.3 3.2c.1 1 .5 2.3.2 3.3-.2.8 3.6.3 4-.7.4-1.8-.3-4-.5-5.7-.2-1.7 0-3.5.1-5.2 2-.1 4.1-.3 6.1 0l.3 4 .2 3.5c0 1 .1 2.5-.2 3.5-.8 2.1 3.1 2 3.7.4.7-1.9.5-4.2.4-6.1-.2-2.5-.6-5-.6-7.3ZM78.2 23c-.9-2.8-2.4-5.2-3.6-7.8l3-5.9c.7-1.7 1.3-3.7 3-5 .6-.4.6-1-.3-1-.9-.1-2 .2-2.8.7a12.1 12.1 0 0 0-3 4.4l-3 6c0 .1 0 .3-.2.4-.5.3-.8.8-.6 1.3l-2.5 4.6c-.3-5.5-1-11-1.2-16.5 0-1.3-4-.5-3.9 1 .2 6.8 1.2 13.6 1.3 20.5-.3.4-.2.6.1.7 0 1.7 0 3.4-.2 5.2-.5.7.5 1.1 1.1 1.1h.1c.7 0 2.6-.3 2.7-1.4.2-2 .3-4.2.2-6.2a32 32 0 0 0 4.1-5.6c.8 1.5 1.5 3 2 4.6 1 2.7 2.3 5.2 3.1 8 .5 1.7 4.5.6 4-1-1-2.9-2.5-5.3-3.4-8.1ZM101.7 18.4c-.2-.8-1.4-.8-2.3-.8v-1c0-2.7-.2-5.4-.4-8-.2-2.4-1.6-3.2-4-3.1-2.4 0-5.2.5-7.5 1.4a7 7 0 0 0-4.6 5.6c-.5 3 .2 6.2.4 9.2.2 3.5.1 7 .1 10.4 0 .6 4 0 4-1V23l-.2-2.4c1.4-.6 3.7 0 5.1 0 1.1.2 2.2-.1 3.2-.2l.2 6.8c0 1.2.5 3.5-.4 4.5-.4.5 1.5.3 1.6.3.8 0 1.8-.4 2.3-1 1-1 .5-3.8.4-5v-5.7c1-.2 2.3-1 2.1-1.8Zm-14.6-.1-.3-3.7c-.2-2.3.1-5.5 2.3-7 .6-.3 1.7-.2 2.4-.3 1-.2 2-.4 2.8.2 1.2.8 1 3.6 1 4.8l.2 6-1.7.1c-2.3-.2-4.6-.6-6.7-.1ZM24.2 6.7c.5-.1 1-.2 1.5-.5L26 6c.5-.3 1-.8.7-1.4-.5-1.1-.4-2.2-.4-3.4 0-1-1-1.2-1.8-1.2-.7.1-2.2.6-2.2 1.5l.1 3v.4c-.2.2 0 .4 0 .6V6l.4.5a3 3 0 0 0 1.5.3Z"/>
  </symbol>
  /*--- Social Icons ---*/
  <symbol id="social-vk" fill="none" viewBox="0 0 28 23">
    <path fill="currentColor" d="M1 5.84c0-.86.52-1.32 1.55-1.38l3.97.02c.26 0 .44.13.53.38.4 1.26.86 2.34 1.37 3.25.5.92 1.17 1.97 1.99 3.16.07.15.18.23.34.23.13 0 .22-.06.3-.18l.07-.28.03-4.35c0-.3-.07-.5-.23-.6-.15-.1-.43-.18-.83-.23-.32-.05-.48-.23-.48-.55 0-.07 0-.12.02-.15.38-1.09 1.44-1.63 3.2-1.63l1.5-.03c.67 0 1.23.16 1.67.48.44.32.67.82.67 1.5v5.72c.12.08.24.12.34.12.27 0 .5-.15.7-.45 1.95-2.58 3-4.31 3.17-5.18 0-.02.01-.06.05-.13.12-.25.33-.47.61-.65.29-.19.53-.31.75-.38a.55.55 0 0 1 .24-.05h4.13l.26.03c.36 0 .63.16.83.47.07.1.12.21.15.33a2.4 2.4 0 0 1 .06.55v.18a6.11 6.11 0 0 1-.94 2.2c-.5.78-1.15 1.62-1.93 2.53-.79.9-1.27 1.5-1.47 1.78-.16.2-.24.39-.24.56 0 .13.07.28.21.45l3.9 4.63c.2.26.31.56.31.88 0 .38-.16.7-.48.95-.32.25-.7.4-1.14.43l-.46.02h-4.04c-.02 0-.06 0-.11.02a.86.86 0 0 1-.1.01c-.4 0-.76-.16-1.1-.48-.12-.13-.96-1.12-2.5-2.97a1.39 1.39 0 0 0-.38-.32 38.47 38.47 0 0 0-.53 2.24l-.08.42a1.4 1.4 0 0 1-1.12 1.06l-.37.02h-2.61c-1.48 0-2.95-.63-4.41-1.9a19.3 19.3 0 0 1-3.96-4.95 47.51 47.51 0 0 1-3.28-7.05A1.92 1.92 0 0 1 1 5.84Zm16.01 6.51c-.37 0-.7-.1-1.01-.29a.9.9 0 0 1-.45-.79V5.5c0-.34-.1-.58-.27-.72-.18-.14-.49-.21-.93-.21l-1.52.05c-.76 0-1.34.12-1.73.37.78.36 1.17.93 1.17 1.71v4.43a1.5 1.5 0 0 1-.53 1.04c-.32.28-.68.42-1.07.42-.53 0-.94-.24-1.22-.73a26.16 26.16 0 0 1-3.1-5.63l-.23-.66-3.55-.02c-.23 0-.36.01-.38.03-.03.03-.04.1-.04.22 0 .15.01.3.05.48l.56 1.4c1.49 3.64 3.11 6.51 4.86 8.6 1.75 2.1 3.47 3.15 5.16 3.15h2.66c.1 0 .19-.03.24-.09.05-.06.1-.17.13-.34l.06-.25.5-2.21c.15-.3.27-.5.38-.6.2-.2.42-.28.69-.28.43 0 .86.24 1.3.73l2.27 2.71c.14.22.3.33.45.33h4.4c.53 0 .8-.13.8-.38a.47.47 0 0 0-.08-.25l-3.87-4.55c-.3-.35-.45-.73-.45-1.13 0-.4.14-.8.43-1.16.23-.34.68-.9 1.34-1.67.67-.78 1.25-1.51 1.75-2.19.5-.68.82-1.3.98-1.85l.08-.33a.37.37 0 0 1-.02-.16c0-.07-.01-.14-.03-.19h-4.18c-.27.1-.48.25-.64.45l-.16.48c-.45 1.16-1.6 2.94-3.5 5.36-.36.33-.8.5-1.3.5Z"/>
  </symbol>
  <symbol id="social-youtube" fill="none" viewBox="0 0 28 23">
    <path fill="currentColor" d="m17.85 11.3-5.24-3.5a.65.65 0 0 0-1.01.55v6.98a.65.65 0 0 0 1.01.54l5.24-3.49a.65.65 0 0 0 0-1.09Zm-4.94 2.8V9.58l3.4 2.27-3.4 2.27Zm12.48-8.56a2.4 2.4 0 0 0-1.45-1.63C20.22 2.48 14.25 2.5 14 2.5s-6.22-.02-9.94 1.4a2.4 2.4 0 0 0-1.45 1.64 25.32 25.32 0 0 0-.61 6.3c0 3.26.33 5.22.61 6.3a2.4 2.4 0 0 0 1.45 1.63c3.72 1.43 9.69 1.4 9.94 1.4h.08c.75 0 6.31-.04 9.86-1.4a2.4 2.4 0 0 0 1.45-1.64c.28-1.07.61-3.03.61-6.3 0-3.25-.33-5.22-.61-6.29Zm-1.27 12.27a1.1 1.1 0 0 1-.65.74c-3.5 1.34-9.4 1.32-9.47 1.32-.07 0-5.98.02-9.47-1.32a1.09 1.09 0 0 1-.65-.74c-.27-1-.57-2.85-.57-5.97 0-3.12.3-4.97.57-5.97a1.1 1.1 0 0 1 .65-.74C8.03 3.79 13.93 3.8 14 3.8c.07 0 5.98-.02 9.47 1.32a1.1 1.1 0 0 1 .65.74c.27 1 .57 2.85.57 5.97 0 3.12-.3 4.96-.57 5.97Z"/>
  </symbol>
  <symbol id="social-telegram" fill="none" viewBox="0 0 28 23">
    <path fill="currentColor" fill-rule="evenodd" d="m23.5 3.7.2.6L21 20a.7.7 0 0 1-1 .5l-8-5.3a.7.7 0 0 1 0-1l2.5-3.2-4.3 2.9h-.7l-5.2-2.6a.7.7 0 0 1 0-1.2l18.4-6.6c.2 0 .5 0 .7.2ZM6.3 10.8l3.6 1.8 7.5-5a.7.7 0 0 1 .9 1l-4.8 6 6.4 4.2 2.3-13.6-15.9 5.6Z" clip-rule="evenodd"/>
  </symbol>
</svg>
