<svg xmlns="http://www.w3.org/2000/svg" width="67" height="100" fill="none"><path fill="#fff" d="M57.1 9.2a35.1 35.1 0 00-47.3 0 29.7 29.7 0 000 44.1s23.7 21.6 23.7 46.6C33.5 75 57 53.3 57 53.3a29.7 29.7 0 000-44.1z"/><path fill="#6BC6B3" d="M47.7 45.2c-.6-3.3 0-6.9 0-10.3-.1-3.7-.7-7.4-.7-11 0-3 .5-6.2-.5-9 0-.4 0-.8.2-1 .3-1.6-4.7-.8-5.4.5-.5.4-.7.9-.5 1.3v.4a101 101 0 01-5.5 18 67 67 0 01-2.3-4.7c-2-4.8-3.8-9.6-6.1-14.2.3-2-4.6-1.9-5.5 0-1.1 2.4-1 4.8-.6 7.2.4 3 .5 5.7.5 8.6 0 5.5.5 11 .6 16.5-.5.6-.6 1.2-.1 2l.8.7c1.3 1 5 .2 5-1.8 0-5.7-.4-11.4-.6-17.1v-1.7l.2.6c.9 2.2 1.8 4.3 3.1 6.4 1.2 2.1 1.9 4.3 2.6 6.5-.3.3-.4.6-.3 1-.1.3 0 .4.4.5.9.8 2.6.4 3.5 0l1.2-.6c.5-.3 1.3-1 1-1.6V42c.7-1.8 1-3.6 1.4-5.5a38 38 0 011.8-5.7l.2 2.6c.3 3.5 0 7 0 10.6 0 1.2.1 2.3.3 3.3.1.5.5 2.5.4 2.6-.9.8-.6 1.8.5 2 1.3.3 3 0 4-1 1.6-1.4.8-3.8.4-5.7z"/></svg>