<svg xmlns="http://www.w3.org/2000/svg" xmlns:xlink="http://www.w3.org/1999/xlink"><defs><clipPath id="clip0_37256_101"><path fill="#fff" transform="translate(.059)" d="M0 0h28v22H0z"/></clipPath></defs><symbol id="cart-icon"><g fill="none"><path d="M20.188 6.857h-3.55L13.188.381C12.985 0 12.58-.095 12.174.095s-.507.572-.304.953l3.145 5.81H5.783l3.145-5.81c.202-.381 0-.762-.305-.953-.406-.19-.811 0-1.014.286l-3.45 6.476H.812c-.406 0-.812.286-.812.762 0 .381.304.762.812.762h.202l.914 2.857c-.203.095-.305.286-.305.572 0 .38.305.666.71.666L4.058 18h12.884l1.725-5.524c.405 0 .71-.286.71-.667 0-.19-.102-.476-.304-.57l.912-2.858h.203c.406 0 .812-.286.812-.762 0-.476-.406-.762-.812-.762zm-4.565 9.62H5.073L3.854 12.38h13.087l-1.319 4.095zm1.623-5.525H3.348l-.812-2.666h15.522l-.812 2.666z" fill="currentColor"/></g></symbol><symbol id="create-with-love"><g fill="none"><path d="M.306 13.953a16.044 16.044 0 000 6.232l4.176-3.165-4.176-3.067zM24.852 1.586C19.963-.59 14.259-.59 9.269 1.982l7.638 5.54 7.945-5.936zM34.528 13.062l-4.889 3.66 4.99 3.66c.51-2.373.51-4.946-.1-7.32zM9.37 32.057c4.89 2.473 10.899 2.671 15.991.099l-8.25-6.035-7.74 5.936zM8.046 14.249L1.732 9.698c-.306.692-.612 1.385-.815 2.078l5.398 3.957 1.731-1.484zM18.945 24.835l8.453 6.134c.306-.198.611-.396.815-.594.306-.198.611-.495.917-.791l-8.454-6.134-1.731 1.385zM11.611 11.578L4.074 6.137c-.51.495-.917 1.088-1.324 1.682l7.028 5.144 1.833-1.385zM22.51 22.163l8.25 6.035c.509-.494.916-1.088 1.324-1.681l-7.843-5.739-1.732 1.386zM15.176 8.907L7.333 3.169c-.203.099-.407.297-.61.396-.408.296-.816.593-1.121.989l7.842 5.64 1.732-1.287zM26.074 19.394l7.13 5.144c.306-.692.611-1.286.917-1.979l-6.213-4.55-1.834 1.385zM26.89 2.674L.916 22.362c.203.692.509 1.385.815 2.077L28.722 3.96c-.509-.494-1.12-.89-1.833-1.286zM31.269 6.532c-.306-.395-.611-.791-.917-1.088L2.852 26.22c.204.494.51.89.815 1.187.101.198.305.396.407.494L31.778 7.127c-.204-.198-.306-.396-.51-.594zM32.898 8.907L5.704 29.484c.509.495 1.12.99 1.731 1.385l26.482-19.984c-.306-.692-.611-1.385-1.019-1.978z" fill="#63D1BB"/></g></symbol><symbol id="eco-material"><g fill="none"><path d="M16.5 38C25.575 38 33 30.645 33 21.656c-9.075 0-16.5 7.253-16.5 16.344zM4.744 16.65c0 2.554 2.062 4.495 4.537 4.495.928 0 1.856-.306 2.578-.817v.306c0 2.554 2.063 4.495 4.538 4.495 2.578 0 4.537-2.043 4.537-4.495v-.306c.722.51 1.65.817 2.578.817 2.579 0 4.538-2.043 4.538-4.494 0-1.84-1.031-3.371-2.578-4.086 1.547-.715 2.578-2.248 2.578-4.087 0-2.553-2.063-4.494-4.538-4.494-.928 0-1.856.306-2.578.817v-.306C20.934 1.94 18.872 0 16.397 0c-2.578 0-4.538 2.043-4.538 4.495V4.8a4.542 4.542 0 00-2.578-.817c-2.578 0-4.537 2.043-4.537 4.494 0 1.84 1.031 3.372 2.578 4.087-1.444.715-2.578 2.247-2.578 4.086zM16.5 7.969c2.578 0 4.538 2.043 4.538 4.494 0 2.554-2.063 4.495-4.538 4.495-2.578 0-4.537-2.043-4.537-4.495 0-2.451 1.959-4.494 4.537-4.494zM0 21.656C0 30.646 7.425 38 16.5 38c0-9.091-7.425-16.344-16.5-16.344z" fill="currentColor"/></g></symbol><symbol id="footer-logo"><g fill="currentColor"><path d="M19.22 21.381c-.1-2.685-.5-5.27-.5-7.956 0-2.187.4-4.375-.4-6.464 0-.199.1-.497.1-.696.2-.994-3.3-.497-3.8.497-.3.299-.5.597-.4.995 0 .1.1.199.1.298-.7 3.183-1.6 6.265-2.6 9.348-.4 1.194-.9 2.288-1.3 3.481-.6-1.094-1.2-2.188-1.6-3.381-1.4-3.381-2.6-6.862-4.3-10.144.2-1.492-3.2-1.392-3.9 0-.8 1.69-.7 3.381-.4 5.171.3 1.99.4 3.978.4 6.067 0 3.978.4 7.856.4 11.834-.4.398-.5.895-.1 1.392.2.2.4.398.6.498 1 .696 3.6.099 3.6-1.293 0-4.078-.3-8.155-.4-12.332v-1.193c.1.1.1.298.2.398.6 1.59 1.3 3.182 2.2 4.674.9 1.491 1.3 3.082 1.8 4.674-.2.199-.3.497-.2.696 0 .199.1.298.3.398.6.497 1.8.298 2.5 0 .3-.1.6-.299.8-.398.3-.2.9-.696.7-1.194 0-.099-.1-.198-.1-.298.5-1.293.7-2.585 1-3.878.3-1.393.8-2.785 1.3-4.078.1.597.1 1.194.2 1.89.2 2.585 0 5.072 0 7.558 0 .795.1 1.591.2 2.486.1.298.4 1.79.3 1.89-.8.497-.6 1.093.2 1.292.9.2 2.1-.1 2.8-.696 1.2-1.094.6-2.784.4-4.177-.5-2.386 0-4.972-.1-7.359zM27.62 22.078c-.1-1.99-.8-3.879-.8-5.868 0-2.287.2-4.574-.2-6.862-.1-.696-4.1.1-3.9.995.3 2.088.2 4.177.2 6.364 0 1.99.5 3.879.7 5.868.3 2.088-.1 4.177.1 6.166.1.994.8 2.685.1 3.58-.4.497 1.5.298 1.6.298.8-.1 1.8-.398 2.3-.994.7-.796.2-2.387.1-3.382-.3-1.989-.1-4.176-.2-6.165zM43.92 18.796c-2.1-2.785-5.9-.796-8.6-1.492-1.4-.398-1.4-2.287-1.4-3.381 0-1.393-.1-2.685-.3-4.078-.1-1.094 0-2.088.7-2.884.1-.1.9-.298.8-.298.4-.1.7-.1 1.1-.1 1.5-.099 4.6.2 4 2.487-.3.994 3.6.398 3.9-.597 1.2-4.575-7.3-3.68-9.7-3.083-2.2.597-4.6 1.79-4.8 4.376-.1 1.193.3 2.387.3 3.58.1 1.392-.2 2.785.3 4.077 1.1 2.984 5.5 1.591 7.8 1.691 3.8.298 2.7 5.47 2.7 7.856 0 1.293 1.2 3.382.2 4.476-.6.696-2 .696-2.8.795-.8.1-2.2.298-2.7-.497-1-1.392.1-3.78-.1-5.37-.1-.895-4.1-.1-3.9.994.3 2.586-1.4 6.066 2.4 6.564 2.4.298 5.2-.2 7.5-.895 1.2-.398 2.3-.895 3.2-1.79 1-.895.7-2.288.4-3.481-.5-3.083.9-6.464-1-8.95zM61.32 18.597c-.1-3.78-.7-7.459-.7-11.238 0-1.989-4-1.293-4 .298 0 3.58.5 7.16.7 10.74v.2c-1.9 0-3.9.198-5.9.198.2-4.574-.6-9.149-.4-13.823 0-.596-3.9-.1-3.9.995-.2 4.475.6 8.85.5 13.326-.1 2.088-.2 4.276-.3 6.364 0 1.094.2 2.188.3 3.282.1.995.5 2.288.2 3.282-.2.796 3.6.298 3.9-.696.5-1.79-.2-3.978-.4-5.768-.2-1.69 0-3.48.1-5.171 2-.1 4.1-.299 6.1 0 .1 1.392.2 2.784.3 4.077.1 1.193.2 2.287.2 3.48 0 .995.1 2.487-.2 3.481-.8 2.089 3.1 1.89 3.7.398.7-1.89.5-4.177.4-6.166-.2-2.486-.6-4.873-.6-7.26zM78.22 22.973c-.9-2.785-2.4-5.171-3.6-7.757 1-1.89 2-3.878 2.9-5.867.8-1.79 1.4-3.78 3.1-5.072.6-.398.6-.895-.3-.995-.9-.1-2.1.2-2.8.696-1.4 1.293-2.4 2.685-3.1 4.376-.9 2.089-1.9 4.077-2.9 6.066-.1.1-.1.299-.2.398-.5.299-.8.796-.6 1.293-.8 1.591-1.6 3.083-2.5 4.575-.3-5.47-1-11.04-1.2-16.509 0-1.293-4-.497-3.9.995.2 6.862 1.2 13.624 1.3 20.486v.1c-.3.298-.2.497.1.596 0 1.79-.1 3.48-.2 5.27-.5.697.5 1.095 1.1 1.095h.1c.7 0 2.6-.299 2.7-1.393.2-2.088.3-4.176.2-6.265 1.6-1.69 2.9-3.58 4.1-5.569.8 1.492 1.5 2.984 2 4.575.9 2.685 2.3 5.27 3.1 7.956.5 1.79 4.5.696 3.9-.995-1-2.784-2.4-5.27-3.3-8.055zM101.721 18.398c-.2-.795-1.4-.795-2.3-.795v-.995c-.1-2.685-.2-5.37-.4-7.956-.2-2.486-1.6-3.281-4-3.182-2.4.1-5.2.497-7.5 1.392-2.6.995-4.1 2.884-4.6 5.669-.5 2.983.2 6.166.4 9.149.2 3.48.1 6.961.1 10.442 0 .597 3.9 0 3.9-.994v-8.255c0-.795-.1-1.59-.1-2.386 1.4-.597 3.7 0 5.1.1 1.1.099 2.2-.2 3.2-.3 0 2.288.1 4.575.2 6.863 0 1.193.5 3.48-.4 4.475-.4.497 1.5.298 1.6.298.8-.1 1.8-.398 2.3-.994.9-1.094.5-3.78.4-5.072-.1-1.89-.1-3.78-.1-5.669 1.1-.199 2.4-.895 2.2-1.79zm-14.6-.1c-.1-1.192-.2-2.485-.3-3.679-.2-2.287.1-5.569 2.3-6.961.6-.398 1.7-.298 2.4-.398 1-.199 2-.398 2.8.199 1.2.796.9 3.68.9 4.873 0 1.989.2 3.978.3 5.967-.6.1-1.1.1-1.7.1-2.3-.2-4.6-.597-6.7-.1zM24.22 6.663c.5-.1 1-.199 1.5-.497l.2-.2c.5-.297 1-.795.7-1.391-.5-1.094-.4-2.188-.4-3.382C26.22.2 25.22 0 24.42 0c-.7.1-2.2.597-2.2 1.492 0 .994-.1 1.989.1 2.983 0 .1-.1.199-.1.398-.1.199 0 .398.1.597v.397c.1.2.2.398.4.498.6.298 1.1.298 1.5.298z"/></g></symbol><symbol id="gift-package"><g fill="none"><path d="M3.028 32h12.614V18.272H3.028V32zM31.385 8.691h-7.367c.505-.296 1.01-.493 1.413-.79 1.615-1.086 2.422-2.568 2.422-3.95 0-1.186-.605-2.173-1.413-2.865C25.633.396 24.523 0 23.413 0c-1.211 0-2.422.395-3.33 1.086-1.514.988-2.624 2.47-3.432 4.05 0 .099-.1.197-.1.197-.303-.592-.606-1.185-1.01-1.777-.706-.988-1.514-1.877-2.523-2.47C12.01.494 10.9 0 9.688 0c-1.21 0-2.321.494-3.23 1.284-.807.79-1.412 1.876-1.412 3.062 0 .691.202 1.481.605 2.173.606.888 1.413 1.58 2.624 2.172h-6.66C.706 8.691 0 9.383 0 10.271V16.1h15.541V8.69h1.918V16.1H33v-5.827c0-.89-.706-1.58-1.615-1.58zM8.881 6.42c-.606-.395-1.01-.79-1.211-1.087-.202-.395-.303-.691-.303-.987 0-.494.202-.988.706-1.482.404-.395 1.01-.691 1.615-.691.707 0 1.413.197 2.018.691a7.6 7.6 0 012.624 3.16c.303.692.606 1.383.808 2.075-3.129-.297-5.147-.988-6.257-1.68zm10.596-1.58c.606-.79 1.211-1.482 1.918-1.877.706-.494 1.412-.691 2.018-.691.605 0 1.11.197 1.514.493.403.297.605.692.605 1.186 0 .493-.303 1.284-1.514 2.074-1.11.79-3.128 1.679-6.156 2.271a10.88 10.88 0 011.615-3.456zM17.46 32h12.614V18.272H17.46V32z" fill="currentColor"/></g></symbol><symbol id="good-style"><g fill="none"><path d="M43.066 0H3.933C1.715 0 0 1.681 0 3.857v19.286C0 25.319 1.715 27 3.933 27h39.133C45.286 27 47 25.319 47 23.143V3.857C47 1.78 45.184 0 43.066 0zM3.026 24.725V2.77H43.57v21.956H3.026z" fill="currentColor"/><path d="M6.96 20.868h32.677V6.627H6.96v14.241zM23.5 8.506c2.925 0 5.346 2.373 5.346 5.242 0 2.868-2.421 5.241-5.346 5.241-2.925 0-5.346-2.373-5.346-5.242 0-2.967 2.421-5.241 5.346-5.241z" fill="currentColor"/></g></symbol><symbol id="likes-up"><g fill="none"><path d="M34 8.45C34 3.788 29.982 0 25.036 0A9.248 9.248 0 0017 4.662C15.558 1.942 12.467 0 8.964 0 4.018 0 0 3.788 0 8.45 0 17.288 15.146 27 17 27c1.958 0 17-9.615 17-18.55z" fill="currentColor"/></g></symbol><symbol id="our-manufacture"><g fill="none"><path d="M40.947 5.75A47.823 47.823 0 0028.41 4.065c-2.932 0-5.56.198-7.785.594L13.75 0H.101l5.864 6.147h8.493c-4.651 1.586-6.875 3.47-6.875 3.47v3.767s2.325 1.883 6.976 3.47H5.864L0 23h13.649l6.875-4.66c2.325.397 4.853.595 7.785.595 4.55 0 8.796-.694 12.537-1.685-1.214-1.784-1.921-3.668-1.921-5.85.1-1.982.91-3.865 2.022-5.65zM44.485 6.741c-1.314 1.586-2.022 3.173-2.022 4.759 0 1.586.708 3.172 2.022 4.759C50.955 14.077 55 11.499 55 11.499s-4.044-2.577-10.515-4.758z" fill="currentColor"/></g></symbol><symbol id="play-video"><g fill="none"><path d="M98.249 18.336s-.913-7.091-3.853-10.232c-3.65-4.052-7.807-4.153-9.632-4.356C71.278 2.735 51 2.735 51 2.735H50.9s-20.279 0-33.764 1.013c-1.926.203-5.982.304-9.632 4.356-2.839 3.14-3.853 10.232-3.853 10.232s-.912 8.307-.912 16.613v7.8c0 8.307.912 16.614.912 16.614s.913 7.091 3.853 10.232c3.65 4.052 8.517 3.95 10.646 4.356C25.855 74.76 51 74.964 51 74.964s20.278 0 33.764-1.013c1.926-.203 5.982-.304 9.632-4.356 2.839-3.14 3.853-10.232 3.853-10.232s.912-8.307.912-16.613v-7.8c0-8.307-.912-16.614-.912-16.614z" fill="currentColor"/><path d="M50.899 77.8c-1.014 0-25.348-.304-33.054-1.013h-.203c-.304-.101-.71-.101-1.115-.203-2.535-.303-7.3-.911-10.95-5.065-3.448-3.647-4.462-10.94-4.563-11.75C1.014 59.463 0 51.157 0 42.85v-7.8c0-8.409.913-16.614.913-16.918v-.101c.1-.81 1.216-8.003 4.562-11.751 4.056-4.458 8.618-4.964 10.85-5.167.202 0 .405 0 .506-.101h.101C30.418 0 50.696 0 50.9 0H51c.203 0 20.481 0 33.966 1.013h.102c.202 0 .304 0 .507.101 2.23.203 6.793.71 10.849 5.167 3.447 3.647 4.461 10.94 4.562 11.75 0 .305 1.014 8.611 1.014 17.02v7.8c0 8.408-.913 16.613-1.014 16.917v.102c-.101.81-1.217 8.104-4.563 11.75-4.055 4.458-8.618 4.964-10.849 5.167-.202 0-.405 0-.506.101h-.102c-13.485.912-33.865.912-34.067.912zm-32.344-6.483c7.604.709 31.634 1.013 32.445 1.013.71 0 20.38 0 33.46-1.013.202 0 .405 0 .608-.102 1.825-.202 4.664-.506 7.3-3.343 1.825-2.026 2.94-6.99 3.143-8.712.101-.506.913-8.509.913-16.31v-7.8c0-7.901-.913-15.803-1.015-16.31-.304-2.43-1.419-6.888-3.143-8.61-2.636-2.938-5.475-3.14-7.3-3.343-.203 0-.405 0-.608-.101C71.076 5.673 51.1 5.673 50.898 5.673h-.1c-.204 0-20.28 0-33.46 1.013-.203 0-.406 0-.608.101-1.825.203-4.664.507-7.3 3.343-1.826 2.026-2.94 6.99-3.144 8.712-.101.608-.912 8.51-.912 16.31v7.8c0 7.8.912 15.803.912 16.31.304 2.431 1.42 6.888 3.143 8.61 2.332 2.634 5.374 3.04 7.605 3.343.608-.1 1.014 0 1.52.102z" fill="#fff"/><path d="M38.834 20.767v36.165L69.048 38.9 38.834 20.767z" fill="#fff"/></g></symbol><symbol id="social-telegram"><g fill="none"><path fill-rule="evenodd" clip-rule="evenodd" d="M23.52 3.153c.178.15.264.382.226.611L21.12 19.521a.657.657 0 01-1.012.439l-7.879-5.253a.657.657 0 01-.148-.956l2.61-3.263-4.36 2.906a.657.657 0 01-.657.041L4.422 10.81a.657.657 0 01.072-1.205l18.383-6.566a.657.657 0 01.642.115zm-17.135 7.17L9.92 12.09l7.562-5.041a.656.656 0 01.877.956l-4.805 6.006 6.437 4.292L22.267 4.65 6.385 10.323z" fill="currentColor"/></g></symbol><symbol id="social-vk"><g fill="none"><g clip-path="url(#clip0_37256_101)"><path d="M1.059 5.339c0-.855.515-1.316 1.545-1.383l3.97.025a.52.52 0 01.533.377c.408 1.257.866 2.343 1.372 3.257.506.913 1.168 1.965 1.985 3.156.07.15.186.226.346.226.124 0 .222-.059.293-.176l.08-.277.027-4.35c0-.302-.076-.503-.227-.604-.15-.1-.43-.176-.84-.226-.319-.05-.479-.235-.479-.553 0-.067.01-.118.027-.151.373-1.09 1.439-1.635 3.197-1.635L14.38 3c.675 0 1.235.16 1.679.478.444.318.666.821.666 1.509v5.708c.124.084.24.126.346.126.267 0 .497-.15.693-.453 1.954-2.582 3.01-4.308 3.17-5.18 0-.017.018-.059.054-.126.124-.251.328-.47.613-.654.284-.184.532-.31.745-.377a.555.555 0 01.24-.05h4.13l.267.025c.355 0 .63.16.825.478.072.1.12.21.147.327.027.117.044.234.053.352.01.117.014.184.014.2v.177c-.125.687-.44 1.42-.946 2.2-.506.78-1.15 1.622-1.932 2.528-.781.905-1.27 1.5-1.465 1.785-.16.201-.24.386-.24.553 0 .135.071.286.213.453l3.89 4.627c.213.269.32.562.32.88 0 .386-.16.705-.48.956-.32.252-.702.394-1.146.428l-.453.025h-4.05a.855.855 0 00-.106.012.862.862 0 01-.106.013c-.391 0-.755-.16-1.093-.478-.124-.134-.959-1.123-2.504-2.967a1.387 1.387 0 00-.373-.327c-.071.268-.164.654-.28 1.157-.115.503-.2.863-.253 1.081l-.08.427c-.178.587-.55.94-1.119 1.057l-.373.025h-2.611c-1.474 0-2.944-.637-4.41-1.911-1.465-1.275-2.784-2.922-3.956-4.942-1.172-2.02-2.265-4.372-3.277-7.054a1.916 1.916 0 01-.133-.73zm16.012 6.513c-.373 0-.71-.096-1.012-.29-.302-.192-.453-.456-.453-.791V4.987c0-.336-.089-.575-.267-.717-.177-.143-.488-.214-.932-.214l-1.519.05c-.764 0-1.34.126-1.732.378.782.352 1.173.922 1.173 1.71v4.426a1.5 1.5 0 01-.533 1.044 1.59 1.59 0 01-1.066.414c-.533 0-.941-.243-1.226-.729C8.12 9.371 7.09 7.493 6.415 5.716l-.24-.654-3.543-.025c-.231 0-.36.013-.387.038-.026.025-.04.096-.04.213 0 .151.018.31.054.478l.559 1.409c1.492 3.638 3.113 6.505 4.862 8.6 1.75 2.096 3.469 3.144 5.156 3.144h2.664c.107 0 .187-.03.24-.088.053-.06.098-.172.133-.34l.053-.251.507-2.213c.142-.302.266-.503.373-.604a.975.975 0 01.692-.277c.427 0 .862.243 1.306.73l2.265 2.716c.142.218.293.327.453.327h4.396c.533 0 .799-.126.799-.378a.466.466 0 00-.08-.251l-3.863-4.552c-.302-.352-.453-.73-.453-1.131 0-.403.142-.788.426-1.157.231-.336.68-.893 1.346-1.673a37.63 37.63 0 001.745-2.187c.497-.68.826-1.296.986-1.849l.08-.327a.371.371 0 01-.027-.163.574.574 0 00-.027-.189h-4.183c-.266.1-.48.252-.64.453l-.159.478c-.444 1.156-1.608 2.942-3.49 5.356a1.892 1.892 0 01-1.306.503z" fill="currentColor"/></g></g></symbol><symbol id="social-youtube"><g fill="none"><path d="M17.91 10.793l-5.237-3.491a.655.655 0 00-1.014.545v6.982a.654.654 0 001.014.546l5.237-3.491a.655.655 0 000-1.091zm-4.942 2.814V9.07l3.403 2.27-3.403 2.268zm12.48-8.563a2.4 2.4 0 00-1.451-1.637C20.277 1.978 14.309 2 14.059 2c-.251 0-6.219-.022-9.939 1.407a2.4 2.4 0 00-1.45 1.637c-.284 1.069-.611 3.032-.611 6.294 0 3.262.327 5.226.61 6.295a2.4 2.4 0 001.451 1.636c3.72 1.43 9.688 1.407 9.939 1.407h.076c.753 0 6.316-.043 9.862-1.407a2.399 2.399 0 001.45-1.636c.284-1.07.612-3.033.612-6.295s-.328-5.225-.611-6.294zm-1.266 12.261a1.09 1.09 0 01-.654.742c-3.491 1.342-9.404 1.32-9.47 1.32-.065 0-5.978.022-9.469-1.32a1.09 1.09 0 01-.654-.742c-.262-1.003-.567-2.847-.567-5.967 0-3.12.305-4.963.567-5.967a1.09 1.09 0 01.655-.742c3.49-1.342 9.403-1.32 9.469-1.32.065 0 5.978-.022 9.469 1.32a1.092 1.092 0 01.654.742c.262 1.004.568 2.847.568 5.967 0 3.12-.306 4.964-.568 5.967z" fill="currentColor"/></g></symbol></svg>