<svg width="29" height="22" viewBox="0 0 29 22" fill="none" xmlns="http://www.w3.org/2000/svg">
<path d="M17.9095 10.7927L12.6731 7.30184C12.5745 7.23691 12.4602 7.19985 12.3423 7.19459C12.2243 7.18934 12.1072 7.21608 12.0032 7.27198C11.8992 7.32789 11.8123 7.41087 11.7516 7.51215C11.691 7.61343 11.6588 7.72924 11.6586 7.84729V14.8291C11.6587 14.9481 11.6913 15.0648 11.7528 15.1667C11.8143 15.2686 11.9024 15.3518 12.0077 15.4073C12.111 15.4631 12.2277 15.4895 12.345 15.4837C12.4623 15.478 12.5758 15.4402 12.6731 15.3746L17.9095 11.8837C17.9995 11.8239 18.0734 11.7429 18.1244 11.6477C18.1755 11.5526 18.2022 11.4462 18.2022 11.3382C18.2022 11.2302 18.1755 11.1239 18.1244 11.0287C18.0734 10.9335 17.9995 10.8525 17.9095 10.7927ZM12.9677 13.6073V9.06911L16.3713 11.3382L12.9677 13.6073ZM25.4477 5.04366C25.3528 4.67547 25.1717 4.33511 24.9194 4.05061C24.6672 3.76611 24.351 3.54561 23.9968 3.40729C20.2768 1.9782 14.3095 2.00002 14.0586 2.00002C13.8077 2.00002 7.84041 1.9782 4.12041 3.40729C3.76624 3.54561 3.44999 3.76611 3.19774 4.05061C2.94548 4.33511 2.76443 4.67547 2.6695 5.04366C2.38587 6.11275 2.05859 8.07638 2.05859 11.3382C2.05859 14.6 2.38587 16.5637 2.6695 17.6327C2.76443 18.0009 2.94548 18.3413 3.19774 18.6258C3.44999 18.9103 3.76624 19.1308 4.12041 19.2691C7.84041 20.6982 13.8077 20.6764 14.0586 20.6764H14.135C14.8877 20.6764 20.4513 20.6327 23.9968 19.2691C24.351 19.1308 24.6672 18.9103 24.9194 18.6258C25.1717 18.3413 25.3528 18.0009 25.4477 17.6327C25.7313 16.5637 26.0586 14.6 26.0586 11.3382C26.0586 8.07638 25.7313 6.11275 25.4477 5.04366ZM24.1822 17.3055C24.1393 17.472 24.0576 17.6259 23.9439 17.7548C23.8301 17.8838 23.6875 17.984 23.5277 18.0473C20.0368 19.3891 14.124 19.3673 14.0586 19.3673C13.9931 19.3673 8.08041 19.3891 4.5895 18.0473C4.42966 17.984 4.28706 17.8838 4.17331 17.7548C4.05956 17.6259 3.97789 17.472 3.93496 17.3055C3.67314 16.3018 3.36768 14.4582 3.36768 11.3382C3.36768 8.2182 3.67314 6.37457 3.93496 5.37093C3.97789 5.20445 4.05956 5.05047 4.17331 4.92156C4.28706 4.79264 4.42966 4.69243 4.5895 4.62911C8.08041 3.28729 13.9931 3.30911 14.0586 3.30911C14.124 3.30911 20.0368 3.28729 23.5277 4.62911C23.6875 4.69243 23.8301 4.79264 23.9439 4.92156C24.0576 5.05047 24.1393 5.20445 24.1822 5.37093C24.444 6.37457 24.7495 8.2182 24.7495 11.3382C24.7495 14.4582 24.444 16.3018 24.1822 17.3055Z" fill="currentColor"/>
</svg>
