<svg width="29" height="22" viewBox="0 0 29 22" fill="none" xmlns="http://www.w3.org/2000/svg">
<path fill-rule="evenodd" clip-rule="evenodd" d="M23.5194 3.15291C23.6979 3.30222 23.7841 3.5349 23.7458 3.76448L21.1197 19.5214C21.083 19.7411 20.9375 19.9273 20.733 20.0159C20.5286 20.1045 20.2932 20.0833 20.1079 19.9597L12.2294 14.7074C12.0763 14.6054 11.9731 14.4437 11.9448 14.2619C11.9166 14.08 11.966 13.8947 12.0809 13.751L14.6916 10.4877L10.3316 13.3944C10.1356 13.525 9.88456 13.5407 9.67383 13.4353L4.42153 10.8092C4.18629 10.6915 4.04394 10.4449 4.05979 10.1824C4.07565 9.91983 4.24664 9.6921 4.49432 9.60364L22.8774 3.03826C23.0966 2.95998 23.3408 3.00359 23.5194 3.15291ZM6.38485 10.3228L9.92027 12.0905L17.4817 7.0495C17.7511 6.86994 18.1111 6.91349 18.3298 7.1521C18.5486 7.3907 18.5608 7.75314 18.3586 8.00591L13.5536 14.0121L19.9914 18.3039L22.2669 4.65058L6.38485 10.3228Z" fill="currentColor"/>
</svg>
