<svg width="29" height="22" viewBox="0 0 29 22" fill="none" xmlns="http://www.w3.org/2000/svg">
<g clip-path="url(#clip0_37256_101)">
<path d="M1.05859 5.33876C1.05859 4.48373 1.5737 4.02268 2.6039 3.95562L6.57375 3.98077C6.84018 3.98077 7.0178 4.10651 7.10661 4.35799C7.51514 5.61538 7.97252 6.70094 8.47874 7.61465C8.98496 8.52835 9.6466 9.58038 10.4637 10.7707C10.5347 10.9216 10.6502 10.997 10.81 10.997C10.9344 10.997 11.032 10.9384 11.1031 10.821L11.183 10.5444L11.2097 6.19379C11.2097 5.89201 11.1342 5.69083 10.9832 5.59024C10.8322 5.48965 10.5525 5.4142 10.1439 5.36391C9.82422 5.31361 9.66436 5.12919 9.66436 4.81065C9.66436 4.74359 9.67324 4.69329 9.691 4.65976C10.064 3.57002 11.1297 3.02515 12.8882 3.02515L14.3802 3C15.0552 3 15.6147 3.15927 16.0587 3.47781C16.5028 3.79635 16.7248 4.29931 16.7248 4.98669V10.6953C16.8492 10.7791 16.9646 10.821 17.0712 10.821C17.3376 10.821 17.5685 10.6701 17.7639 10.3683C19.7177 7.78649 20.7746 6.05966 20.9345 5.18787C20.9345 5.1711 20.9522 5.12919 20.9877 5.06213C21.1121 4.81065 21.3163 4.5927 21.6005 4.40828C21.8847 4.22387 22.1334 4.09813 22.3465 4.03107C22.4176 3.99753 22.4975 3.98077 22.5863 3.98077H26.716L26.9825 4.00592C27.3377 4.00592 27.613 4.16519 27.8084 4.48373C27.8795 4.58432 27.9283 4.69329 27.9549 4.81065C27.9816 4.92801 27.9994 5.04536 28.0082 5.16272C28.0171 5.28008 28.0216 5.34714 28.0216 5.36391V5.53994C27.8972 6.22732 27.5819 6.9608 27.0757 7.74038C26.5695 8.51997 25.9256 9.36243 25.1441 10.2678C24.3626 11.1731 23.8741 11.7682 23.6787 12.0533C23.5189 12.2544 23.4389 12.4389 23.4389 12.6065C23.4389 12.7406 23.51 12.8915 23.6521 13.0592L27.542 17.6864C27.7551 17.9546 27.8617 18.248 27.8617 18.5666C27.8617 18.9522 27.7018 19.2707 27.3821 19.5222C27.0624 19.7737 26.6805 19.9162 26.2365 19.9497L25.7835 19.9749H21.7338C21.716 19.9749 21.6805 19.979 21.6272 19.9874C21.5739 19.9958 21.5384 20 21.5206 20C21.1298 20 20.7657 19.8407 20.4282 19.5222C20.3039 19.3881 19.4691 18.3989 17.9238 16.5547C17.835 16.4374 17.7106 16.3284 17.5508 16.2278C17.4797 16.4961 17.3865 16.8817 17.271 17.3846C17.1556 17.8876 17.0712 18.248 17.0179 18.466L16.938 18.8935C16.7603 19.4803 16.3873 19.8323 15.819 19.9497L15.4459 19.9749H12.8349C11.3606 19.9749 9.89083 19.3378 8.42545 18.0636C6.96007 16.7894 5.64123 15.1423 4.46893 13.122C3.29663 11.1018 2.20425 8.75049 1.19181 6.06805C1.103 5.8501 1.05859 5.607 1.05859 5.33876ZM17.0712 11.8521C16.6982 11.8521 16.3607 11.7557 16.0587 11.5629C15.7568 11.3701 15.6058 11.106 15.6058 10.7707V4.98669C15.6058 4.65138 15.517 4.41248 15.3394 4.26997C15.1618 4.12747 14.8509 4.05621 14.4069 4.05621L12.8882 4.10651C12.1244 4.10651 11.5472 4.23225 11.1564 4.48373C11.9379 4.8358 12.3287 5.40582 12.3287 6.19379V10.6198C12.2932 11.039 12.1155 11.3868 11.7958 11.6635C11.4761 11.9401 11.1209 12.0784 10.7301 12.0784C10.1972 12.0784 9.7887 11.8353 9.5045 11.3491C8.11905 9.37081 7.08885 7.4931 6.41389 5.71598L6.1741 5.06213L2.63055 5.03698C2.39964 5.03698 2.27086 5.04956 2.24422 5.0747C2.21757 5.09985 2.20425 5.1711 2.20425 5.28846C2.20425 5.43935 2.22202 5.59862 2.25754 5.76627L2.81705 7.17456C4.30907 10.8126 5.92987 13.6795 7.67944 15.7751C9.42901 17.8708 11.1475 18.9186 12.8349 18.9186H15.4992C15.6058 18.9186 15.6857 18.8893 15.739 18.8306C15.7923 18.7719 15.8367 18.6588 15.8722 18.4911L15.9255 18.2396L16.4317 16.0266C16.5738 15.7249 16.6982 15.5237 16.8048 15.4231C17.0001 15.2387 17.231 15.1465 17.4975 15.1465C17.9238 15.1465 18.3589 15.3895 18.803 15.8757L21.0677 18.5917C21.2098 18.8097 21.3607 18.9186 21.5206 18.9186H25.9167C26.4496 18.9186 26.716 18.7929 26.716 18.5414C26.716 18.4576 26.6894 18.3738 26.6361 18.2899L22.7728 13.7382C22.4709 13.3861 22.3199 13.0089 22.3199 12.6065C22.3199 12.2041 22.462 11.8185 22.7462 11.4497C22.9771 11.1144 23.4256 10.557 24.0917 9.77737C24.7578 8.99778 25.3395 8.26849 25.8368 7.5895C26.3342 6.9105 26.6628 6.29438 26.8226 5.74112L26.9025 5.4142C26.8848 5.38067 26.8759 5.32618 26.8759 5.25074C26.8759 5.1753 26.867 5.11243 26.8493 5.06213H22.6663C22.3998 5.16272 22.1867 5.31361 22.0268 5.51479L21.867 5.9926C21.4229 7.14941 20.2595 8.93491 18.3767 11.3491C18.0037 11.6844 17.5685 11.8521 17.0712 11.8521Z" fill="currentColor"/>
</g>
<defs>
<clipPath id="clip0_37256_101">
<rect width="28" height="22" fill="white" transform="translate(0.0585938)"/>
</clipPath>
</defs>
</svg>
